<svg width="356" height="295" viewBox="0 0 356 295" fill="none" xmlns="http://www.w3.org/2000/svg">
<path d="M320.223 117.337C320.223 138.24 310.078 159.48 286.408 169.257V169.931C313.46 180.046 328 199.937 328 227.583C328 265.006 299.934 294 248.198 294H164V58H249.212C297.567 58 320.223 87.3314 320.223 117.337ZM241.435 95.0857H207.959V154.086H242.788C262.4 154.086 275.588 143.634 275.588 124.08C275.588 104.526 260.371 95.0857 241.435 95.0857ZM242.449 189.823H207.959V257.251H244.816C268.148 257.251 282.351 244.777 282.351 224.211C282.351 202.297 265.781 189.823 242.449 189.823Z" fill="#004182"/>
<path d="M47.5704 96H2.02427V58H91.4296V256.24H139V294H0V256.24H47.5704V96Z" fill="#004182"/>
<path d="M75.0955 221.342H107.961V228.615H75.0955V221.342Z" fill="#74899F"/>
<path d="M91.5376 228.616V238.703" stroke="#0D2135" stroke-width="0.322056" stroke-miterlimit="10"/>
<path d="M76.0613 251.448V253.028H107.003V251.448L95.3498 250.259C94.8066 250.204 94.3033 249.948 93.9373 249.542C93.5712 249.135 93.3683 248.607 93.368 248.059V238.12H89.696V248.059C89.6965 248.607 89.4944 249.135 89.1289 249.541C88.7634 249.948 88.2605 250.204 87.7177 250.259L76.0613 251.448Z" fill="#B4C6D8"/>
<path d="M107.004 256.125C106.151 256.125 105.461 255.432 105.461 254.576C105.461 253.721 106.151 253.028 107.004 253.028C107.856 253.028 108.547 253.721 108.547 254.576C108.547 255.432 107.856 256.125 107.004 256.125Z" fill="#0D2135"/>
<path d="M91.5347 256.124C90.6825 256.124 89.9918 255.431 89.9918 254.576C89.9918 253.721 90.6825 253.028 91.5347 253.028C92.3869 253.028 93.0779 253.721 93.0779 254.576C93.0779 255.431 92.3869 256.124 91.5347 256.124Z" fill="#0D2135"/>
<path d="M76.0658 256.126C75.2136 256.126 74.5226 255.433 74.5226 254.578C74.5226 253.723 75.2136 253.03 76.0658 253.03C76.918 253.03 77.6086 253.723 77.6086 254.578C77.6086 255.433 76.918 256.126 76.0658 256.126Z" fill="#0D2135"/>
<path d="M28.5471 156.13V256.126H71.9136V207.999H34.0217V156.13H28.5471Z" fill="#B4C6D8"/>
<path d="M34.0249 202.991H77.6086V208.002H34.0249V202.991Z" fill="#95ABC1"/>
<path d="M34.0126 156.13H42.5154V158.234H34.0126V156.13Z" fill="#2863AD"/>
<path d="M34.0126 169.015H42.5154V171.119H34.0126V169.015Z" fill="#2863AD"/>
<path d="M34.0126 181.896H42.5154V184H34.0126V181.896Z" fill="#2863AD"/>
<path d="M34.0126 194.78H42.5154V196.884H34.0126V194.78Z" fill="#2863AD"/>
<path d="M71.9058 197.114C71.8866 197.216 65.1828 191.595 65.1828 191.595C64.2801 190.849 63.4944 189.97 62.8521 188.99C62.7223 188.794 62.5468 188.633 62.3409 188.521C62.1351 188.409 61.9051 188.35 61.671 188.347L59.939 188.315C59.7803 188.312 59.6247 188.359 59.4947 188.451C59.3647 188.542 59.2667 188.672 59.2152 188.823L58.8278 189.94C58.7895 190.05 58.7739 190.167 58.7822 190.283C58.7905 190.399 58.8225 190.512 58.876 190.615L59.2762 191.331C59.3098 191.396 59.3594 191.452 59.4206 191.492C59.4818 191.532 59.5525 191.555 59.6254 191.56C59.6982 191.564 59.7708 191.55 59.8364 191.517C59.902 191.485 59.9583 191.437 59.9996 191.376C60.0295 191.336 60.0544 191.291 60.0734 191.245L60.2847 192.009C60.3307 192.176 60.4181 192.327 60.5392 192.45C60.6603 192.573 60.8106 192.662 60.976 192.71L61.4084 192.832C61.5031 192.858 61.6025 192.862 61.6991 192.844C61.7957 192.825 61.887 192.785 61.9655 192.726C62.5065 194.351 64.2065 194.332 64.2065 194.332L69.0086 200.506" fill="#DE9885"/>
<path d="M55.9992 186.071L51.2643 188.811V192.268H58.3905L61.2493 201.403H46.9968V187.205L55.8231 183.919L55.9992 186.071Z" fill="#B4C6D8"/>
<path d="M66.9014 177.888L67.6746 179.231L60.2803 183.515L59.5072 182.171L66.9014 177.888Z" fill="#2A67B2"/>
<path d="M62.2543 189.136C62.395 189.054 62.4977 188.919 62.5397 188.762C62.5817 188.604 62.5597 188.436 62.4784 188.294L60.6151 185.06C60.5747 184.99 60.5211 184.929 60.4572 184.88C60.3933 184.831 60.3205 184.795 60.2428 184.774C60.165 184.753 60.0839 184.748 60.0042 184.759C59.9245 184.77 59.8474 184.796 59.7779 184.836C59.7083 184.877 59.6476 184.931 59.5987 184.995C59.5499 185.059 59.514 185.132 59.4934 185.21C59.4727 185.288 59.4674 185.369 59.478 185.449C59.4887 185.529 59.5152 185.607 59.5556 185.676L61.4155 188.911C61.4971 189.052 61.6312 189.155 61.7884 189.198C61.9457 189.24 62.1133 189.218 62.2543 189.136Z" fill="#0D2135"/>
<path d="M64.1747 187.617C64.2535 187.573 64.3206 187.512 64.3701 187.437C64.4166 187.371 64.4495 187.296 64.467 187.218C64.4846 187.139 64.4864 187.057 64.4724 186.978C64.4584 186.899 64.4289 186.823 64.3854 186.755C64.342 186.687 64.2856 186.628 64.2194 186.582L61.1718 184.44C61.1061 184.393 61.0318 184.36 60.9533 184.343C60.8748 184.325 60.7937 184.323 60.7145 184.337C60.6352 184.351 60.5595 184.38 60.4916 184.424C60.4236 184.467 60.3649 184.523 60.3187 184.589C60.2724 184.655 60.2396 184.73 60.2221 184.808C60.2045 184.887 60.2026 184.969 60.2164 185.048C60.2303 185.127 60.2596 185.203 60.3027 185.272C60.3458 185.34 60.4017 185.399 60.4675 185.445L63.5185 187.588C63.6138 187.655 63.7261 187.693 63.8424 187.698C63.9586 187.703 64.0739 187.675 64.1747 187.617Z" fill="#0D2135"/>
<path d="M59.9803 190.046C60.082 189.988 60.1645 189.902 60.2185 189.797C60.2724 189.693 60.2952 189.575 60.2841 189.458L59.964 185.738C59.9571 185.658 59.9345 185.58 59.8974 185.508C59.8603 185.437 59.8098 185.373 59.7483 185.321C59.6867 185.269 59.6155 185.23 59.5388 185.206C59.4622 185.181 59.3816 185.173 59.3015 185.18C59.2214 185.187 59.1434 185.209 59.072 185.246C59.0007 185.284 58.9374 185.334 58.8857 185.396C58.834 185.458 58.7949 185.529 58.7707 185.606C58.7464 185.683 58.7375 185.764 58.7444 185.844L59.0645 189.568C59.0714 189.648 59.0941 189.726 59.1311 189.798C59.1682 189.869 59.2187 189.933 59.2803 189.985C59.3418 190.037 59.413 190.076 59.4897 190.1C59.5664 190.125 59.6472 190.134 59.7273 190.126C59.8163 190.118 59.9025 190.09 59.9803 190.046Z" fill="#0D2135"/>
<path d="M62.7332 182.168C62.489 181.704 62.1539 181.294 61.748 180.962C61.3422 180.631 60.8739 180.386 60.3712 180.24C59.8685 180.095 59.3419 180.053 58.8227 180.117C58.3034 180.181 57.8024 180.35 57.3495 180.612C56.8967 180.875 56.5015 181.227 56.1875 181.647C55.8735 182.067 55.6469 182.546 55.5219 183.056C55.3968 183.565 55.3758 184.095 55.4597 184.613C55.5435 185.131 55.7308 185.627 56.0102 186.071L62.7332 182.168Z" fill="#0D2135"/>
<path d="M61.4656 182.905L57.2708 185.335L58.0712 186.726C58.1603 186.881 58.3072 186.994 58.4794 187.041C58.6517 187.087 58.835 187.063 58.9894 186.973L62.0197 185.218C62.1741 185.128 62.2869 184.981 62.333 184.808C62.3792 184.635 62.3551 184.451 62.2659 184.296L61.4656 182.905Z" fill="#57697B"/>
<path d="M51.2665 192.269H64.4817V193.477H51.2665V192.269Z" fill="#0D2135"/>
<path d="M56.6257 191.292H64.4817V192.269H56.6257V191.292Z" fill="#2A67B2"/>
<path d="M46.999 201.404H64.4817V202.991H46.999V201.404Z" fill="#0D2135"/>
<path d="M78.0859 186.408L69.0038 198.833L75.5473 200.292L78.0859 186.408Z" fill="#394450"/>
<path d="M69.0059 198.836L59.5714 197.034C59.2541 196.951 58.9517 196.818 58.6751 196.642L58.47 196.51C58.2693 196.379 58.0545 196.271 57.8297 196.189L54.6636 195.077C54.4727 195.01 54.2691 194.987 54.0681 195.01L53.0117 195.132C52.9684 195.138 52.9273 195.154 52.8922 195.18C52.8572 195.207 52.8295 195.241 52.8116 195.281C52.7936 195.321 52.786 195.365 52.7897 195.408C52.7934 195.452 52.8082 195.494 52.8325 195.53C53.0133 195.764 53.2792 195.917 53.5719 195.954L54.718 196.218C54.8487 196.251 54.9753 196.298 55.0957 196.359C55.1251 196.377 55.1489 196.403 55.1639 196.434C55.1788 196.465 55.1842 196.499 55.1798 196.533C55.1754 196.568 55.1612 196.6 55.1388 196.626C55.1165 196.652 55.087 196.671 55.0541 196.68L53.4343 197.043C53.3915 196.956 53.3217 196.884 53.2352 196.84C53.1487 196.795 53.0501 196.78 52.9541 196.796C51.9169 197.14 52.064 198.303 52.8932 198.376L52.9219 198.524C52.935 198.59 52.9658 198.65 53.011 198.699C53.0563 198.748 53.1143 198.783 53.1783 198.801L53.4472 198.878V199.112C53.4538 199.225 53.4861 199.334 53.5416 199.432C53.5971 199.53 53.6743 199.614 53.7673 199.677L55.2464 200.641C55.4529 200.776 55.6996 200.834 55.9442 200.805L57.6922 200.606C57.8167 200.593 57.9401 200.57 58.0604 200.535L58.3806 200.445C58.7108 200.352 59.062 200.368 59.3826 200.49L68.2215 203.837" fill="#DE9885"/>
<path d="M79.101 186.409C79.101 186.409 78.0351 182.018 75.7333 182.497C73.4315 182.975 73.3002 182.972 72.2117 181.083C71.6547 179.997 70.931 180.627 70.5532 180.02C70.1754 179.413 70.4731 178.292 69.6215 176.792L82.4271 174.222C82.2735 178.494 81.643 180.084 86.5283 181.838L79.101 186.409Z" fill="#DE9885"/>
<path d="M68.1583 174.723L69.5989 176.811L81.9243 174.723V173.92L76.3219 171.029L68.1583 174.723Z" fill="#DE9885"/>
<path d="M79.2315 168.246C82.4329 160.989 92.4916 164.414 92.8662 171.751C93.1319 178.657 96.3333 181.281 100.55 180.61C96.7591 187.276 87.6351 184.092 86.6235 177.96C85.6118 171.828 85.3429 165.593 79.2315 168.246Z" fill="#BF7461"/>
<path d="M66.7255 174.226C67.83 175.832 70.7147 176.577 72.3442 174.473C72.8165 175.059 73.3995 175.546 74.06 175.906C74.5437 176.168 75.0728 176.336 75.6191 176.4L76.5061 175.414L77.6778 174.129C77.9228 174.464 78.2101 174.765 78.5326 175.025C79.0432 175.428 79.6398 175.707 80.2758 175.839C80.9119 175.971 81.5699 175.953 82.1979 175.787L82.3614 175.748C83.0769 175.57 83.7537 175.262 84.3589 174.839C83.1968 174.444 82.5407 174.091 82.403 173.3C82.3878 173.237 82.3792 173.173 82.3774 173.108C82.3758 173.1 82.3758 173.093 82.3774 173.085C82.2566 172.175 81.9491 171.3 81.4745 170.515C80.8659 169.511 80.0065 168.685 78.9815 168.116C77.9565 167.548 76.8016 167.259 75.6307 167.276C74.4598 167.294 73.3138 167.618 72.3061 168.216C71.2984 168.815 70.4638 169.667 69.8854 170.689C69.569 171.209 69.2991 171.756 69.0788 172.324L69.0115 172.497C68.8232 172.967 68.5108 173.376 68.108 173.68C67.7052 173.985 67.2272 174.173 66.7255 174.226Z" fill="#BF7461"/>
<path d="M71.9145 213.791V245.576H83.398L79.8155 223.473L95.1344 221.462C98.976 220.7 101.159 216.608 101.159 216.608L86.7785 210.504L81.8579 211.751L71.9145 213.791Z" fill="white"/>
<path d="M76.3056 176.55C75.4198 176.55 74.7018 175.83 74.7018 174.941C74.7018 174.052 75.4198 173.332 76.3056 173.332C77.1914 173.332 77.9094 174.052 77.9094 174.941C77.9094 175.83 77.1914 176.55 76.3056 176.55Z" fill="#DE9885"/>
<path d="M80.3338 203.858L79.1686 205.756C78.7119 206.502 78.0348 207.087 77.2315 207.429C76.4282 207.771 75.5387 207.853 74.6866 207.664L67.8164 206.145L69.0072 198.85L73.9951 199.724L78.493 184.712C78.493 184.712 82.5043 184.337 84.8958 181.179C88.9616 182.785 92.6048 183.032 95.4604 188.201C98.3161 193.37 106.726 210.8 101.146 219.444C91.6795 219.444 87.4346 211.169 81.8513 211.776C78.0865 207.507 80.3338 203.858 80.3338 203.858Z" fill="#57697B"/>
<path d="M83.3916 245.576L84.4033 251.265V251.615L84.4993 256.112H71.5464C72.2891 254.015 73.6912 254.236 75.1799 254.031C76.3836 253.864 77.6483 253.421 78.6695 251.249C79.0345 250.639 79.4345 248.589 78.3141 245.56" fill="#DE9885"/>
<path d="M84.5057 256.13H71.5528C72.2955 254.032 73.6979 254.254 75.1866 254.048C75.5259 255.655 80.2926 254.768 82.3319 252.831C82.9722 252.221 83.2124 251.758 84.4097 251.617C85.8791 254.116 84.5057 256.13 84.5057 256.13Z" fill="#0D2135"/>
<path d="M35.8309 192.269H42.5154V194.778H35.8309V192.269Z" fill="white"/>
<path d="M35.8309 192.269H42.5154V193.936H35.8309V192.269Z" fill="#B5A1CB"/>
<path d="M34.0262 189.76H40.7107V192.268H34.0262V189.76Z" fill="white"/>
<path d="M34.0262 189.76H40.7107V191.427H34.0262V189.76Z" fill="#B5A1CB"/>
<path d="M35.8309 187.248H42.5154V189.757H35.8309V187.248Z" fill="white"/>
<path d="M35.8309 187.248H42.5154V188.915H35.8309V187.248Z" fill="#B5A1CB"/>
<path d="M40.4986 176.68H41.5615C42.0884 176.68 42.5154 177.108 42.5154 177.637V180.939C42.5154 181.468 42.0884 181.896 41.5615 181.896H40.4986C39.9717 181.896 39.5444 181.468 39.5444 180.939V177.637C39.5444 177.108 39.9717 176.68 40.4986 176.68Z" fill="#E7592F"/>
<path d="M39.5444 175.362H42.5154V176.679H39.5444V175.362Z" fill="#57697B"/>
<path d="M41.0358 172.956C40.9135 172.956 40.7961 173.005 40.7097 173.091C40.6232 173.178 40.5746 173.296 40.5746 173.418V175.346H41.4966V173.418C41.4966 173.296 41.448 173.178 41.3615 173.091C41.2751 173.005 41.158 172.956 41.0358 172.956Z" fill="#0D2135"/>
<path d="M40.5689 177.636H42.5154V180.797H40.5689V177.636Z" fill="white"/>
<path d="M37.5266 176.68H38.5896C39.1165 176.68 39.5435 177.108 39.5435 177.637V180.939C39.5435 181.468 39.1165 181.896 38.5896 181.896H37.5266C36.9997 181.896 36.5728 181.468 36.5728 180.939V177.637C36.5728 177.108 36.9997 176.68 37.5266 176.68Z" fill="#9AC6EA"/>
<path d="M36.5728 175.362H39.5435V176.679H36.5728V175.362Z" fill="#7E9039"/>
<path d="M38.0635 172.956C38.003 172.956 37.9431 172.968 37.8872 172.991C37.8313 173.014 37.7802 173.048 37.7374 173.091C37.6946 173.134 37.6609 173.185 37.6377 173.241C37.6145 173.297 37.6024 173.358 37.6024 173.418V175.346H38.5247V173.418C38.5247 173.296 38.4761 173.178 38.3896 173.091C38.3031 173.005 38.1858 172.956 38.0635 172.956Z" fill="#0D2135"/>
<path d="M37.597 177.636H39.5435V180.797H37.597V177.636Z" fill="white"/>
<path d="M36.4827 169.015H39.7544C39.8836 169.015 40.0109 168.984 40.1259 168.925C40.2408 168.866 40.34 168.78 40.4157 168.675C40.4913 168.57 40.541 168.449 40.5607 168.321C40.5804 168.193 40.5697 168.062 40.5292 167.939L39.0532 163.422C38.9766 163.185 38.9379 162.936 38.9381 162.686V160.001H37.283V162.686C37.2833 162.936 37.2443 163.185 37.1677 163.422L35.6917 167.935C35.6501 168.06 35.639 168.193 35.6592 168.322C35.6794 168.452 35.7305 168.575 35.808 168.681C35.8855 168.787 35.9873 168.872 36.1047 168.93C36.2221 168.989 36.3518 169.017 36.4827 169.015Z" fill="#0D2135"/>
<path d="M85.6833 151.878V159.318" stroke="#0D2135" stroke-width="0.297718" stroke-miterlimit="10"/>
<path d="M123.693 151.878V159.318" stroke="#0D2135" stroke-width="0.297718" stroke-miterlimit="10"/>
<path d="M131.372 149.95H78V153.805H131.372V149.95Z" fill="#B24226"/>
<path d="M87.5559 141.348H82.5872L80.1042 145.647L82.5872 149.949H87.5559L90.0388 145.647L87.5559 141.348Z" fill="#97ACAF"/>
<path d="M93.277 132.247H90.0437V149.952H93.277V132.247Z" fill="white"/>
<path d="M95.9548 128.858H93.2725V149.949H95.9548V128.858Z" fill="#2A67B2"/>
<path d="M104.043 126.06L102.363 125.61L95.9615 149.502L97.6409 149.952L104.043 126.06Z" fill="#0D2135"/>
<path d="M104.071 134.26H101.841V149.953H104.071V134.26Z" fill="#BC792A"/>
<path d="M126.214 138.82H121.629C120.807 138.82 120.141 139.486 120.141 140.308V148.46C120.141 149.282 120.807 149.948 121.629 149.948H126.214C127.036 149.948 127.703 149.282 127.703 148.46V140.308C127.703 139.486 127.036 138.82 126.214 138.82Z" fill="#0D2135"/>
<path d="M126.215 136.469H121.821V138.821H126.215V136.469Z" fill="#6F6659"/>
<path d="M120.134 132.247H117.053V149.952H120.134V132.247Z" fill="#17717F"/>
<path d="M117.061 128.394H114.7V149.949H117.061V128.394Z" fill="white"/>
<path d="M109.98 128.394H107.619V149.949H109.98V128.394Z" fill="#F4FBFE"/>
<path d="M107.616 131.36H104.07V149.953H107.616V131.36Z" fill="#A6AC85"/>
<path d="M114.704 137.351H112.343V149.95H114.704V137.351Z" fill="#2A67B2"/>
<path d="M112.347 130.913H111.168V149.949H112.347V130.913Z" fill="#915B24"/>
<path d="M111.151 130.913H109.972V149.949H111.151V130.913Z" fill="#0D2135"/>
<path d="M283.952 47.0117V16.0117L242.952 16.0117V47.0117H283.952Z" fill="#0D2135" stroke="#0D2135" stroke-width="0.262667" stroke-miterlimit="10"/>
<path d="M274.452 25.1841H253.88V38.7508H274.452V25.1841Z" fill="white"/>
<path d="M274.455 33.7183H253.883C258.028 40.503 270.182 40.3585 274.455 33.7183Z" fill="#E7592F"/>
<path d="M259.407 33.6864C260.574 33.6864 261.52 32.7351 261.52 31.5615C261.52 30.3879 260.574 29.4365 259.407 29.4365C258.24 29.4365 257.294 30.3879 257.294 31.5615C257.294 32.7351 258.24 33.6864 259.407 33.6864Z" fill="#F3BA64"/>
<path d="M262.411 33.7155C263.017 33.7155 263.508 33.2216 263.508 32.6123C263.508 32.003 263.017 31.509 262.411 31.509C261.805 31.509 261.314 32.003 261.314 32.6123C261.314 33.2216 261.805 33.7155 262.411 33.7155Z" fill="#7854A2"/>
<path d="M264.608 33.7155C265.214 33.7155 265.705 33.2216 265.705 32.6123C265.705 32.003 265.214 31.509 264.608 31.509C264.002 31.509 263.511 32.003 263.511 32.6123C263.511 33.2216 264.002 33.7155 264.608 33.7155Z" fill="#7854A2"/>
<path d="M263.508 31.806C264.114 31.806 264.605 31.312 264.605 30.7027C264.605 30.0935 264.114 29.5996 263.508 29.5996C262.902 29.5996 262.411 30.0935 262.411 30.7027C262.411 31.312 262.902 31.806 263.508 31.806Z" fill="#7854A2"/>
<path d="M266.802 33.7155C267.408 33.7155 267.899 33.2216 267.899 32.6123C267.899 32.003 267.408 31.509 266.802 31.509C266.196 31.509 265.705 32.003 265.705 32.6123C265.705 33.2216 266.196 33.7155 266.802 33.7155Z" fill="#7854A2"/>
<path d="M269.488 26.9656L266.131 30.3423L269.488 33.719L272.846 30.3423L269.488 26.9656Z" fill="#586D4D"/>
<path d="M235.637 21.0259C235.635 21.8411 235.496 22.6503 235.226 23.4205L235.183 23.5444C234.627 25.0245 233.609 26.2909 232.276 27.1595C230.943 28.0282 229.365 28.454 227.771 28.3752C226.176 28.2963 224.649 27.7169 223.41 26.721C222.172 25.7251 221.286 24.3646 220.882 22.837C220.861 22.7485 220.839 22.6566 220.821 22.5681C220.778 22.3842 220.746 22.1967 220.721 22.0128C220.671 21.6612 220.647 21.3066 220.65 20.9516C220.776 19.0648 221.625 17.2967 223.023 16.0076C224.421 14.7186 226.264 14.0057 228.175 14.0142C230.087 14.0228 231.923 14.7523 233.309 16.0538C234.696 17.3553 235.528 19.1309 235.637 21.0188V21.0259Z" fill="#955646"/>
<path d="M225.464 34.9805C225.758 33.5303 227.835 30.6192 225.221 30.3822C222.608 30.1452 222.644 29.7066 222.104 27.372C221.861 26.0456 220.867 26.4771 220.674 25.7201C220.48 24.9632 221.145 23.8737 220.72 22.0203L235.229 23.4139C233.684 27.8672 232.944 31.3514 236.022 34.977L225.464 34.9805Z" fill="#955646"/>
<path d="M234.536 28.4008L230.414 28.0931C230.155 28.0739 229.904 27.9916 229.685 27.8537C229.466 27.7157 229.285 27.5263 229.157 27.3023C229.03 27.0783 228.96 26.8266 228.955 26.5696C228.95 26.3127 229.009 26.0583 229.127 25.8293C229.631 24.9197 229.993 23.9392 230.199 22.9218C230.245 22.6198 230.258 22.3139 230.238 22.0091L226.663 22.1966V18.9601C225.892 19.7377 224.944 20.3224 223.899 20.6662C222.854 21.01 221.742 21.103 220.653 20.9374C220.779 19.0506 221.628 17.2825 223.027 15.9934C224.425 14.7044 226.268 13.9915 228.179 14.0001C230.09 14.0086 231.926 14.738 233.313 16.0396C234.699 17.3411 235.532 19.1168 235.641 21.0046C235.68 22.9678 235.923 24.188 236.52 25.2704C236.711 25.5996 236.808 25.9739 236.8 26.3533C236.793 26.7327 236.681 27.103 236.477 27.4245C236.273 27.746 235.985 28.0067 235.643 28.1786C235.301 28.3506 234.919 28.4274 234.536 28.4008Z" fill="#0D2135"/>
<path d="M247.031 55.6375L245.358 58.0003H198.779V49.4404L210.159 50.5758L218.003 36.5191C218.554 35.5359 219.343 34.7038 220.3 34.098C221.257 33.4922 222.351 33.1316 223.484 33.0491C223.645 33.0491 223.813 33.0315 223.978 33.0315H236.602C236.781 33.0315 236.96 33.0314 237.135 33.0491C237.426 33.0642 237.716 33.0937 238.004 33.1375C239.598 33.381 241.1 34.0342 242.36 35.0316C243.62 36.029 244.593 37.3359 245.183 38.8218L248.154 46.3135C248.76 47.8385 248.974 49.4883 248.778 51.1153C248.582 52.7423 247.982 54.2959 247.031 55.6375Z" fill="#74899F"/>
<path d="M238.001 33.1339L236.789 57.9966H220.94L223.482 33.0454C223.643 33.0454 223.811 33.0278 223.976 33.0278H224.172L223.815 38.5599L236.793 39.1683L237.151 33.0454C237.436 33.0611 237.719 33.0906 238.001 33.1339Z" fill="#0D2135"/>
<path d="M225.781 33.0272H234.44C234.638 33.0268 234.835 32.9846 235.015 32.9034C235.196 32.8223 235.357 32.7039 235.488 32.5564C235.619 32.4088 235.716 32.2353 235.774 32.0476C235.832 31.8598 235.849 31.6619 235.824 31.4672C235.8 31.2864 235.74 31.112 235.648 30.9541C235.556 30.7962 235.433 30.6581 235.286 30.5475C235.139 30.437 234.972 30.3564 234.794 30.3102C234.615 30.2641 234.429 30.2534 234.247 30.2788L225.666 31.4602C225.476 31.4873 225.302 31.5812 225.176 31.7248C225.05 31.8683 224.98 32.0518 224.98 32.2419C224.98 32.3455 225.001 32.448 225.042 32.5435C225.082 32.639 225.141 32.7257 225.216 32.7986C225.29 32.8715 225.378 32.9293 225.475 32.9685C225.572 33.0077 225.676 33.0277 225.781 33.0272Z" fill="#74899F"/>
<path d="M202.775 41.8137H176.443V57.9325H202.775V41.8137Z" fill="#0D2135"/>
<path d="M202.784 41.8137H204.518C204.933 41.814 205.337 41.9428 205.674 42.1819C206.012 42.4211 206.265 42.7586 206.398 43.1472L211.465 57.9362H202.784V41.8137Z" fill="#394450"/>
<path d="M202.782 41.8137H200.369V57.9325H202.782V41.8137Z" fill="#57697B"/>
<path d="M196.49 31.644H173.093C172.25 31.644 171.566 32.3202 171.566 33.1543V38.2196C171.566 39.0537 172.25 39.73 173.093 39.73H196.49C197.333 39.73 198.016 39.0537 198.016 38.2196V33.1543C198.016 32.3202 197.333 31.644 196.49 31.644Z" fill="#394450"/>
<path d="M194.923 31.644H171.526C170.683 31.644 170 32.3202 170 33.1543V38.2196C170 39.0537 170.683 39.73 171.526 39.73H194.923C195.766 39.73 196.45 39.0537 196.45 38.2196V33.1543C196.45 32.3202 195.766 31.644 194.923 31.644Z" fill="#0D2135"/>
<path d="M192.218 39.731H176.443V41.8144H192.218V39.731Z" fill="#57697B"/>
<path d="M90.0209 51.3013H11.2615V54.4274H90.0209V51.3013Z" fill="#3C4545"/>
<path d="M61.0186 7H36.8552V45.5741H61.0186V7Z" fill="white"/>
<path d="M81.619 16.7766H61.0098V45.5753H81.619V16.7766Z" fill="#F1ECE6"/>
<path d="M81.6294 16.7766H68.5552V45.5753H81.6294V16.7766Z" fill="white"/>
<path d="M72.8739 45.5752H45.6343V51.2996H72.8739V45.5752Z" fill="white"/>
<path d="M72.8739 45.5752H45.6343V47.5352H72.8739V45.5752Z" fill="#F1ECE6"/>
<path d="M81.6255 21.2271H66.1338V39.9552H81.6255V21.2271Z" fill="#5B6A6B"/>
<path d="M68.5513 21.2271H66.1338V39.9552H68.5513V21.2271Z" fill="#3C4545"/>
<path d="M61.0186 11.3562V21.2255L36.8552 16.7775V11.3562H61.0186Z" fill="#F1ECE6"/>
<path d="M81.626 24.3232H66.1338V25.133H81.626V24.3232Z" fill="#B2A797"/>
<path d="M81.626 28.2324H66.1338V29.0422H81.626V28.2324Z" fill="#B2A797"/>
<path d="M81.626 32.1401H66.1338V32.9499H81.626V32.1401Z" fill="#B2A797"/>
<path d="M81.626 36.0454H66.1338V36.8552H81.626V36.0454Z" fill="#B2A797"/>
<path d="M58.4411 24.3232H36.8552V25.133H58.4411V24.3232Z" fill="#B2A797"/>
<path d="M58.4411 28.2324H36.8552V29.0421H58.4411V28.2324Z" fill="#B2A797"/>
<path d="M58.4411 32.1401H36.8552V32.9499H58.4411V32.1401Z" fill="#B2A797"/>
<path d="M58.4411 36.0613H36.8552V36.871H58.4411V36.0613Z" fill="#B2A797"/>
<path d="M58.4411 39.9883H36.8552V40.798H58.4411V39.9883Z" fill="#B2A797"/>
<path d="M63.4245 47.5366H61.0098V51.3011H63.4245V47.5366Z" fill="#5B6A6B"/>
<path d="M58.4462 47.5366H56.0315V51.3011H58.4462V47.5366Z" fill="#5B6A6B"/>
<path d="M58.4462 47.5366H56.0315V48.5795H58.4462V47.5366Z" fill="#3C4545"/>
<path d="M63.4245 47.5366H61.0098V48.5795H63.4245V47.5366Z" fill="#3C4545"/>
<path d="M58.4444 24.3232H54.8315V25.133H58.4444V24.3232Z" fill="#3C4545"/>
<path d="M58.4444 28.2324H54.8315V29.0422H58.4444V28.2324Z" fill="#3C4545"/>
<path d="M58.4444 32.1401H54.8315V32.9499H58.4444V32.1401Z" fill="#3C4545"/>
<path d="M58.4444 36.0454H54.8315V36.8552H58.4444V36.0454Z" fill="#3C4545"/>
<path d="M58.4444 39.9531H54.8315V40.7629H58.4444V39.9531Z" fill="#3C4545"/>
<path d="M85.5314 44.3242C85.247 44.6985 85.0045 45.1031 84.8083 45.5307C84.6304 45.9762 84.6181 46.4712 84.7736 46.9251C84.9048 47.2207 85.1085 47.4781 85.3656 47.6731C85.6227 47.8682 85.9248 47.9945 86.2438 48.0404C86.8824 48.1217 87.5308 48.0166 88.1116 47.7374C89.2093 47.2548 90.1129 46.414 90.6759 45.3511C90.8589 45.0278 90.9691 44.6681 90.9987 44.2973C91.0361 43.3294 90.2515 42.5358 89.4457 41.9995C89.5165 41.8729 89.5652 41.7351 89.5898 41.592C89.654 41.3631 89.6312 41.1184 89.5257 40.9056C89.4666 40.8207 89.3902 40.7495 89.3016 40.6965C89.1442 40.5973 88.9673 40.5335 88.7831 40.5094C88.5988 40.4853 88.4117 40.5016 88.2343 40.557C88.4344 40.2889 88.253 39.8437 87.9675 39.656C87.8173 39.571 87.6484 39.5249 87.476 39.5221C87.3036 39.5193 87.133 39.5598 86.9801 39.6399C86.6768 39.804 86.41 40.0285 86.1958 40.2997C85.8362 40.7105 85.5229 41.1601 85.2619 41.6403C84.9951 42.1122 84.7282 42.651 84.7095 43.198C84.6975 43.4902 84.7808 43.7783 84.9469 44.0185C85.0123 44.1133 85.0997 44.1907 85.2015 44.2439C85.3033 44.2972 85.4166 44.3247 85.5314 44.3242Z" fill="#738F65"/>
<path d="M87.8389 45.5752L87.4759 51.3025H86.6807L87.6307 45.5752H87.8389Z" fill="#394633"/>
<path d="M78.6349 41.5645C78.5191 41.2924 78.3291 41.0586 78.0869 40.8902C77.8447 40.7218 77.5603 40.6256 77.2661 40.6125C77.4079 40.3946 77.4699 40.1338 77.4412 39.8749C77.4125 39.6161 77.2949 39.3754 77.1087 39.1941C76.9158 39.0197 76.6865 38.8906 76.4377 38.8164C76.1889 38.7422 75.9267 38.7247 75.6703 38.7651C75.1587 38.8486 74.6668 39.0259 74.2189 39.288C73.9071 39.423 73.6377 39.6408 73.4398 39.9181C73.3461 40.0594 73.3073 40.2304 73.3309 40.3985C73.3545 40.5666 73.4388 40.7201 73.5678 40.8297C73.1543 41.1275 72.802 41.5026 72.5299 41.9345C72.3137 42.2373 72.2005 42.6021 72.207 42.9748C72.2146 43.1595 72.2829 43.3365 72.4012 43.4782C72.5194 43.6198 72.6811 43.7181 72.8608 43.7577C72.3492 44.0474 71.9516 44.5045 71.7346 45.0529C71.5176 45.6012 71.4941 46.2078 71.6679 46.7715C71.8249 47.1885 72.093 47.5543 72.4426 47.8289C72.7922 48.1036 73.21 48.2767 73.6506 48.3293C74.7179 48.4527 75.5905 47.7018 76.3189 47.0315C77.1755 46.2979 77.9113 45.4328 78.4989 44.4682C78.9125 43.7147 78.9951 42.3447 78.6349 41.5645Z" fill="#738F65"/>
<path d="M75.2085 44.4826L74.9015 51.3011H74.3491L75.0055 44.4209L75.2085 44.4826Z" fill="#394633"/>
<path d="M26.8247 34.7203L36.8548 33.4333V38.08L26.8247 41.386V34.7203Z" fill="#1D2124"/>
<path d="M19.282 87.0496L18.0039 92.699L18.3481 95.9971H29.1281L28.9493 94.5383C28.9493 94.5383 23.9408 94.4017 22.4066 92.0153C22.1397 91.5971 23.8155 87.0469 23.8155 87.0469L19.282 87.0496Z" fill="#F3BA63"/>
<path d="M18.3506 96H29.1306L28.9518 94.5414C28.9518 94.5414 23.9433 94.4046 22.4091 92.0183C21.7058 92.3209 21.0846 92.7879 20.5973 93.3804C19.4126 93.3804 18.0891 92.7423 18.0064 92.7021C17.7764 93.8106 17.8968 94.9636 18.3506 96Z" fill="#22201D"/>
<path d="M25.5462 87.0468H16.394L20.5298 66.8547H30.6022L25.5462 87.0468Z" fill="#6F6659"/>
<path d="M23.1699 58.3117L31.1985 59.7864C32.02 59.9371 32.8034 60.2511 33.5027 60.7099C34.2019 61.1686 34.8032 61.7629 35.2711 62.458C35.739 63.1531 36.064 63.9351 36.2274 64.7581C36.3908 65.581 36.3893 66.4284 36.2227 67.2507L32.2204 87.0487H23.4688L27.543 67.2455L15.5949 66.8567C7.28083 66.8567 8.03852 57.7836 8.03852 57.7836L15.7763 54.8208L23.1699 58.3117Z" fill="#918675"/>
<path d="M9.83929 67.6172L4.85777 95.9976H2.69116L7.73678 67.2446L9.83929 67.6172Z" fill="#6FA9DC"/>
<path d="M24.8589 95.9976H22.6952L17.7134 67.6172L19.8162 67.2446L24.8589 95.9976Z" fill="#6FA9DC"/>
<path d="M14.8394 69.2241H12.7048V95.9958H14.8394V69.2241Z" fill="#6FA9DC"/>
<path d="M25.555 66.8547H2V69.2249H25.555V66.8547Z" fill="#0D2135"/>
<path d="M32.008 26.6943C31.9797 26.8308 31.9585 26.9685 31.9442 27.1071C31.9442 27.1795 31.9174 27.2493 31.9014 27.3217C31.5624 28.7714 30.6657 30.0271 29.4075 30.814C28.1493 31.601 26.6321 31.8551 25.188 31.5206C24.9206 31.4587 24.6582 31.3761 24.4034 31.2738C23.6697 30.9859 23.0051 30.5451 22.4532 29.9803C21.9013 29.4156 21.4746 28.7398 21.2014 27.9974V27.9759C20.826 26.9519 20.7584 25.8395 21.0068 24.7771C21.0361 24.6538 21.0682 24.5305 21.1055 24.4099C21.4941 23.1794 22.2916 22.1204 23.3645 21.4103C24.4373 20.7003 25.7203 20.3824 26.9987 20.5096C28.2771 20.6368 29.4733 21.2016 30.3867 22.1093C31.3001 23.0171 31.8753 24.2126 32.0161 25.4958C32.0574 25.8943 32.0546 26.2963 32.008 26.6943Z" fill="#DE9885"/>
<path d="M26.2437 37.0547C26.2437 37.0547 26.7026 33.2499 28.6451 33.0328C30.5876 32.8156 30.6864 32.5502 31.0466 30.7752C31.2094 29.767 31.9565 30.0754 32.0899 29.4989C32.2233 28.9225 31.7082 28.1074 31.9964 26.6943L21.2034 27.9706C22.4255 31.3221 21.3154 33.1159 19.3142 35.0813C21.8491 38.4838 26.2437 37.0547 26.2437 37.0547Z" fill="#DE9885"/>
<path d="M27.1883 48.8266L28.0956 49.4539C29.8268 50.6573 31.882 51.3017 33.987 51.3013H38.9018L37.7838 45.3008L33.6882 46.2365C33.6882 46.2365 30.1048 37.2573 26.8282 34.7209C26.8282 34.7209 24.3789 35.0131 22.6099 34.1363C21.6761 33.6256 20.8175 32.9867 20.059 32.238C11.2912 38.5737 7.91876 51.3013 8.03616 57.7845C13.482 58.9749 17.3749 56.6181 26.4468 58.9158C25.5796 51.1538 27.4071 51.4917 27.1883 48.8266Z" fill="#1D2124"/>
<path d="M38.2385 47.708L42.5878 47.6517C43.3983 47.6463 44.1826 47.3624 44.8105 46.8473C45.4259 46.3154 46.1269 45.8928 46.8836 45.5978C47.2252 45.4744 47.8256 44.9784 48.4687 44.6969C48.5203 44.6739 48.5759 44.6616 48.6323 44.6605C48.6888 44.6594 48.7448 44.6696 48.7973 44.6906C48.8497 44.7116 48.8975 44.7429 48.9377 44.7826C48.978 44.8224 49.01 44.8698 49.0318 44.9221C49.0692 45.0128 49.0743 45.1137 49.0466 45.2079C49.019 45.3021 48.9601 45.3839 48.8796 45.4396L47.3586 46.4799L49.0823 46.0536L50.0217 44.6915C50.2885 44.2866 50.8355 44.67 50.7021 45.0669C51.0196 45.335 50.8916 45.4717 50.8329 45.705C50.7742 45.9383 50.0777 47.4184 50.0777 47.4184C50.0084 47.6118 49.8805 47.7786 49.7122 47.8956C49.9016 48.5873 49.3359 48.7188 49.3359 48.7188C49.3359 49.2738 48.4954 49.7725 47.6122 49.9172C46.729 50.062 44.3594 50.1318 44.3594 50.1318L38.9082 51.3008L38.2385 47.708Z" fill="#DE9885"/>
<path d="M23.4703 87.0496L22.1921 92.699L22.5364 95.9971H33.3161L33.1373 94.5383C33.1373 94.5383 28.1291 94.4017 26.5948 92.0153C26.328 91.5971 28.0035 87.0469 28.0035 87.0469L23.4703 87.0496Z" fill="#F3BA64"/>
<path d="M22.5308 96H33.3105L33.1318 94.5414C33.1318 94.5414 28.1235 94.4046 26.5892 92.0183C25.886 92.3209 25.2648 92.7879 24.7775 93.3804C23.5927 93.3804 22.2693 92.7423 22.1866 92.7021C21.9566 93.8106 22.077 94.9636 22.5308 96Z" fill="#22201D"/>
<path d="M346.723 152.392L321.969 158.589L329.757 189.514L354.512 183.317L346.723 152.392Z" fill="#1D2124"/>
<path d="M344.779 162.801L344.799 162.901L346.83 176.38C347.125 178.752 346.309 180.12 346.309 180.12L347.822 185.067L338.318 187.442L337.447 183.912C337.235 183.057 336.741 182.297 336.045 181.755L332.502 178.999C332.027 178.628 331.628 178.169 331.327 177.648L328.326 172.446C328.186 172.204 328.142 171.918 328.205 171.646C328.268 171.373 328.431 171.135 328.663 170.978C328.776 170.902 328.902 170.848 329.035 170.818C329.234 170.77 329.442 170.777 329.636 170.84C329.831 170.902 330.004 171.016 330.138 171.171L332.698 174.124C332.781 174.22 332.889 174.291 333.01 174.331C333.131 174.371 333.26 174.378 333.384 174.35C333.509 174.323 333.623 174.262 333.716 174.175C333.808 174.088 333.875 173.978 333.91 173.856L334.212 172.756C334.304 172.407 334.31 172.04 334.229 171.688L331.903 161.434C331.847 161.179 331.892 160.912 332.03 160.69C332.168 160.468 332.388 160.308 332.642 160.245C332.89 160.178 333.155 160.21 333.379 160.334C333.6 160.453 333.769 160.65 333.851 160.887L336.807 169.402L335.455 159.204C335.42 158.933 335.491 158.66 335.652 158.439C335.813 158.219 336.052 158.067 336.321 158.017C336.59 157.966 336.868 158.02 337.099 158.166C337.33 158.313 337.496 158.542 337.563 158.806L337.562 158.828L339.783 168.724L338.978 159.893C338.967 159.618 339.056 159.348 339.23 159.134C339.403 158.92 339.648 158.776 339.92 158.729C340.192 158.682 340.472 158.735 340.707 158.878C340.943 159.022 341.118 159.246 341.201 159.508C341.211 159.542 341.217 159.577 341.221 159.612L342.828 169.545L342.669 163.092C342.659 162.829 342.748 162.573 342.917 162.372C343.087 162.171 343.326 162.04 343.587 162.005C343.848 161.97 344.113 162.034 344.33 162.183C344.547 162.332 344.7 162.556 344.76 162.812L344.779 162.801Z" fill="#74899F"/>
<path d="M336.03 171.452L335.941 171.488C335.827 171.532 335.705 171.554 335.583 171.551C335.46 171.548 335.34 171.52 335.228 171.47C335.116 171.42 335.016 171.348 334.932 171.259C334.849 171.169 334.784 171.064 334.742 170.95C334.695 170.82 334.677 170.681 334.689 170.544C334.752 169.333 334.436 168.132 333.784 167.109C333.747 167.048 333.719 166.981 333.702 166.912C333.66 166.747 333.684 166.571 333.768 166.423C333.852 166.274 333.99 166.163 334.154 166.113L334.355 166.05C334.514 166.001 334.686 166.013 334.837 166.083C334.988 166.154 335.108 166.278 335.172 166.431C335.199 166.493 335.215 166.559 335.221 166.627C335.4 168.574 336.094 169.564 336.34 169.859C336.399 169.93 336.448 170.009 336.484 170.093L336.545 170.234C336.593 170.348 336.618 170.47 336.618 170.593C336.619 170.716 336.594 170.838 336.546 170.952C336.498 171.065 336.428 171.168 336.339 171.254C336.25 171.34 336.146 171.408 336.03 171.452Z" fill="white"/>
<path d="M344.534 171.398L344.456 171.396C344.353 171.41 344.248 171.403 344.148 171.375C344.047 171.348 343.953 171.302 343.871 171.238C343.789 171.174 343.721 171.095 343.669 171.005C343.618 170.915 343.586 170.815 343.573 170.712C343.562 170.596 343.575 170.478 343.612 170.367C343.905 169.38 343.886 168.326 343.556 167.35C343.536 167.294 343.525 167.233 343.526 167.173C343.525 167.028 343.58 166.887 343.679 166.781C343.778 166.674 343.914 166.61 344.06 166.6L344.237 166.603C344.378 166.594 344.517 166.639 344.628 166.727C344.738 166.815 344.812 166.94 344.835 167.08C344.841 167.137 344.841 167.195 344.832 167.253C344.588 168.895 344.961 169.832 345.104 170.144C345.14 170.214 345.164 170.288 345.178 170.366L345.198 170.495C345.216 170.598 345.213 170.704 345.189 170.805C345.165 170.907 345.12 171.003 345.058 171.087C344.996 171.171 344.918 171.242 344.828 171.296C344.737 171.349 344.637 171.384 344.534 171.398Z" fill="white"/>
<path d="M341.595 170.831L341.502 170.851C341.381 170.877 341.257 170.878 341.136 170.855C341.015 170.831 340.9 170.784 340.798 170.715C340.695 170.647 340.608 170.558 340.541 170.455C340.473 170.352 340.427 170.237 340.406 170.116C340.38 169.981 340.382 169.842 340.412 169.707C340.679 168.524 340.569 167.287 340.099 166.168C340.073 166.101 340.057 166.032 340.051 165.961C340.038 165.79 340.092 165.622 340.201 165.49C340.31 165.358 340.465 165.273 340.635 165.252L340.845 165.226C341.009 165.206 341.174 165.248 341.309 165.342C341.444 165.437 341.539 165.578 341.576 165.738C341.586 165.805 341.585 165.874 341.573 165.941C341.416 167.89 341.93 168.98 342.121 169.315C342.168 169.394 342.203 169.48 342.224 169.57L342.259 169.718C342.317 169.953 342.28 170.202 342.156 170.41C342.032 170.619 341.83 170.77 341.595 170.831Z" fill="white"/>
<path d="M338.842 170.608C338.717 170.645 338.586 170.656 338.457 170.641C338.328 170.626 338.203 170.585 338.089 170.52C337.976 170.456 337.877 170.369 337.798 170.266C337.72 170.163 337.663 170.044 337.631 169.918L337.631 169.885C337.599 169.751 337.593 169.612 337.616 169.476C337.783 168.218 337.589 166.939 337.058 165.786C337.001 165.668 336.962 165.544 336.942 165.415C336.918 165.258 336.955 165.098 337.047 164.968C337.138 164.838 337.277 164.748 337.433 164.716L337.718 164.658C337.872 164.625 338.033 164.65 338.169 164.73C338.305 164.81 338.405 164.939 338.45 165.089C338.486 165.209 338.505 165.334 338.507 165.459C338.529 167.525 339.136 168.635 339.345 168.959C339.393 169.032 339.43 169.112 339.456 169.196L339.515 169.403C339.552 169.527 339.563 169.656 339.549 169.783C339.535 169.911 339.496 170.034 339.433 170.147C339.37 170.259 339.285 170.357 339.184 170.437C339.083 170.516 338.967 170.574 338.842 170.608Z" fill="white"/>
<path d="M333.989 166.139L334.587 165.957C334.647 165.938 334.703 165.908 334.751 165.867C334.799 165.826 334.839 165.776 334.868 165.72C334.896 165.664 334.914 165.603 334.919 165.54C334.923 165.477 334.915 165.414 334.896 165.355L334.874 165.295C334.848 165.217 334.802 165.146 334.741 165.091C334.214 164.585 334.164 163.738 334.17 163.355C334.174 163.219 334.126 163.086 334.036 162.985C333.968 162.908 333.88 162.852 333.782 162.824C333.683 162.795 333.579 162.796 333.481 162.825L333.284 162.888C333.192 162.914 333.108 162.965 333.042 163.034C332.976 163.104 332.93 163.19 332.908 163.283L332.908 163.32C332.879 163.461 332.907 163.606 332.986 163.726C333.18 163.978 333.315 164.27 333.383 164.581C333.451 164.891 333.45 165.212 333.379 165.522C333.351 165.608 333.35 165.7 333.374 165.787L333.374 165.824C333.392 165.886 333.422 165.944 333.464 165.993C333.505 166.043 333.556 166.084 333.613 166.114C333.671 166.143 333.734 166.161 333.799 166.165C333.863 166.169 333.928 166.161 333.989 166.139Z" fill="white"/>
<path d="M343.889 166.621L344.337 166.565C344.383 166.56 344.426 166.545 344.466 166.522C344.505 166.5 344.54 166.469 344.567 166.433C344.595 166.397 344.614 166.355 344.626 166.311C344.637 166.267 344.639 166.221 344.632 166.176L344.632 166.132C344.623 166.073 344.6 166.017 344.565 165.969C344.335 165.574 344.269 165.105 344.379 164.662C344.399 164.569 344.382 164.471 344.331 164.389C344.295 164.326 344.241 164.275 344.176 164.243C344.111 164.21 344.037 164.198 343.965 164.207L343.821 164.223C343.752 164.232 343.687 164.259 343.632 164.3C343.577 164.342 343.534 164.397 343.507 164.461L343.506 164.487C343.466 164.582 343.464 164.688 343.501 164.785C343.607 164.989 343.666 165.213 343.674 165.442C343.683 165.672 343.64 165.9 343.55 166.111C343.524 166.17 343.515 166.235 343.525 166.298L343.525 166.328C343.538 166.413 343.583 166.491 343.65 166.545C343.718 166.599 343.803 166.626 343.889 166.621Z" fill="white"/>
<path d="M337.225 164.688L337.859 164.561C337.923 164.548 337.983 164.522 338.037 164.485C338.091 164.449 338.136 164.402 338.171 164.347C338.207 164.292 338.231 164.231 338.242 164.167C338.253 164.103 338.252 164.038 338.238 163.975L338.239 163.908C338.217 163.825 338.175 163.749 338.117 163.685C337.627 163.111 337.663 162.235 337.706 161.838C337.719 161.706 337.683 161.575 337.605 161.468C337.544 161.382 337.459 161.316 337.361 161.277C337.262 161.238 337.155 161.228 337.051 161.249L336.84 161.29C336.745 161.308 336.656 161.351 336.583 161.415C336.51 161.478 336.455 161.56 336.424 161.652L336.424 161.685C336.401 161.755 336.393 161.829 336.399 161.903C336.406 161.976 336.427 162.047 336.461 162.113C336.635 162.393 336.745 162.707 336.783 163.034C336.821 163.361 336.787 163.693 336.682 164.005C336.653 164.093 336.652 164.188 336.678 164.277L336.677 164.318C336.704 164.438 336.776 164.542 336.878 164.611C336.98 164.679 337.104 164.707 337.225 164.688Z" fill="white"/>
<path d="M340.451 165.275L341.092 165.193C341.157 165.185 341.219 165.163 341.276 165.13C341.333 165.096 341.382 165.052 341.421 165C341.461 164.947 341.489 164.887 341.505 164.824C341.521 164.76 341.524 164.694 341.514 164.629L341.515 164.567C341.499 164.482 341.464 164.402 341.412 164.333C340.96 163.729 341.066 162.855 341.128 162.462C341.153 162.325 341.127 162.184 341.053 162.067C340.996 161.978 340.916 161.906 340.82 161.861C340.725 161.816 340.619 161.799 340.514 161.811L340.299 161.841C340.202 161.854 340.109 161.893 340.032 161.953C339.954 162.013 339.894 162.093 339.858 162.184L339.857 162.221C339.827 162.288 339.811 162.36 339.81 162.434C339.808 162.507 339.822 162.58 339.851 162.648C340.005 162.938 340.093 163.26 340.109 163.588C340.125 163.917 340.068 164.245 339.942 164.549C339.904 164.634 339.891 164.729 339.904 164.821L339.904 164.861C339.922 164.989 339.989 165.103 340.092 165.181C340.194 165.258 340.324 165.292 340.451 165.275Z" fill="white"/>
<path d="M333.734 162.291L333.733 162.328C333.748 162.38 333.752 162.434 333.745 162.488C333.738 162.542 333.721 162.594 333.694 162.641C333.667 162.688 333.631 162.729 333.588 162.763C333.546 162.796 333.497 162.82 333.444 162.835L333.173 162.908C333.068 162.936 332.955 162.922 332.86 162.868C332.765 162.814 332.695 162.725 332.665 162.62L332.665 162.583C332.65 162.51 332.651 162.435 332.669 162.362C332.742 162 332.676 161.623 332.483 161.306C332.432 161.219 332.415 161.116 332.437 161.017C332.46 160.918 332.518 160.832 332.602 160.774C332.687 160.734 332.778 160.709 332.872 160.701C332.972 160.709 333.065 160.755 333.132 160.828C333.2 160.902 333.236 160.998 333.235 161.097C333.231 161.468 333.366 161.826 333.615 162.101C333.67 162.153 333.712 162.218 333.734 162.291Z" fill="white"/>
<path d="M330.62 172.872L330.641 172.909C330.673 172.96 330.694 173.017 330.704 173.077C330.713 173.137 330.711 173.198 330.696 173.256C330.682 173.315 330.656 173.37 330.62 173.419C330.585 173.467 330.539 173.509 330.487 173.54L330.223 173.698C330.171 173.729 330.114 173.75 330.054 173.76C329.994 173.769 329.933 173.767 329.874 173.752C329.815 173.738 329.759 173.712 329.711 173.677C329.662 173.641 329.621 173.596 329.59 173.544L329.568 173.51C329.527 173.438 329.505 173.357 329.502 173.274C329.47 172.864 329.283 172.483 328.98 172.205C328.898 172.128 328.849 172.022 328.841 171.91C328.834 171.798 328.87 171.688 328.941 171.6C329.021 171.531 329.112 171.475 329.21 171.435C329.321 171.413 329.436 171.432 329.533 171.49C329.63 171.549 329.701 171.641 329.733 171.749C329.844 172.148 330.102 172.491 330.456 172.707C330.523 172.748 330.579 172.805 330.62 172.872Z" fill="white"/>
<path d="M344.269 163.861L344.269 163.89C344.274 163.934 344.271 163.978 344.259 164.019C344.247 164.061 344.227 164.101 344.2 164.134C344.172 164.168 344.138 164.197 344.099 164.217C344.061 164.238 344.019 164.25 343.975 164.254L343.753 164.276C343.709 164.281 343.665 164.277 343.623 164.265C343.581 164.253 343.542 164.232 343.508 164.205C343.474 164.177 343.446 164.143 343.425 164.104C343.405 164.065 343.392 164.023 343.388 163.98L343.389 163.954C343.387 163.895 343.398 163.836 343.421 163.781C343.533 163.512 343.538 163.211 343.434 162.938C343.408 162.864 343.411 162.782 343.441 162.709C343.472 162.636 343.528 162.577 343.599 162.543C343.634 162.527 343.673 162.52 343.711 162.523C343.747 162.514 343.785 162.515 343.822 162.525C343.862 162.534 343.899 162.55 343.933 162.574C343.966 162.598 343.995 162.627 344.016 162.662C344.038 162.697 344.053 162.735 344.06 162.775C344.066 162.816 344.065 162.857 344.055 162.897C344 163.183 344.057 163.48 344.212 163.727C344.24 163.768 344.259 163.813 344.269 163.861Z" fill="white"/>
<path d="M340.833 161.328L340.833 161.364C340.84 161.419 340.835 161.475 340.82 161.528C340.804 161.582 340.778 161.631 340.743 161.674C340.708 161.717 340.664 161.752 340.615 161.777C340.565 161.803 340.511 161.818 340.456 161.822L340.179 161.855C340.123 161.862 340.067 161.857 340.014 161.842C339.961 161.826 339.911 161.8 339.868 161.765C339.825 161.73 339.79 161.687 339.764 161.637C339.738 161.588 339.723 161.534 339.719 161.479L339.72 161.442C339.711 161.369 339.721 161.294 339.749 161.226C339.875 160.878 339.866 160.495 339.722 160.154C339.684 160.06 339.684 159.955 339.72 159.861C339.757 159.767 339.827 159.69 339.918 159.645C339.96 159.622 340.008 159.612 340.056 159.614C340.103 159.602 340.152 159.603 340.199 159.616C340.298 159.638 340.385 159.696 340.443 159.779C340.501 159.862 340.525 159.963 340.51 160.063C340.451 160.429 340.532 160.804 340.737 161.112C340.786 161.175 340.819 161.249 340.833 161.328Z" fill="white"/>
<path d="M337.437 160.652L337.436 160.692C337.446 160.751 337.445 160.811 337.431 160.869C337.417 160.927 337.392 160.982 337.357 161.03C337.322 161.078 337.277 161.119 337.226 161.15C337.175 161.181 337.118 161.201 337.058 161.209L336.759 161.26C336.7 161.27 336.639 161.268 336.581 161.254C336.523 161.241 336.468 161.216 336.419 161.181C336.371 161.146 336.33 161.101 336.3 161.05C336.269 160.999 336.249 160.942 336.24 160.883L336.241 160.843C336.228 160.762 336.235 160.68 336.263 160.604C336.381 160.219 336.349 159.805 336.174 159.442C336.129 159.342 336.123 159.229 336.157 159.124C336.192 159.02 336.264 158.932 336.361 158.878C336.458 158.844 336.561 158.827 336.664 158.828C336.773 158.846 336.871 158.905 336.938 158.992C337.005 159.079 337.037 159.188 337.026 159.298C336.982 159.698 337.09 160.101 337.33 160.425C337.385 160.49 337.422 160.568 337.437 160.652Z" fill="white"/>
<path d="M340.151 179.462L339.463 179.801C339.366 179.851 339.259 179.88 339.15 179.887C339.041 179.894 338.932 179.879 338.829 179.843C338.726 179.807 338.632 179.75 338.551 179.677C338.471 179.604 338.406 179.515 338.361 179.416C338.315 179.318 338.29 179.213 338.285 179.105L338.266 178.442C338.25 177.998 338.14 177.562 337.942 177.163L336.321 173.904C336.26 173.776 336.169 173.664 336.057 173.576L335.776 173.351C335.662 173.258 335.57 173.14 335.508 173.006C335.446 172.873 335.416 172.727 335.419 172.579L335.427 172.06C335.431 171.94 335.468 171.823 335.535 171.722C335.602 171.622 335.696 171.542 335.806 171.492C335.913 171.439 336.032 171.417 336.15 171.428C336.269 171.439 336.382 171.483 336.477 171.554L336.897 171.866C337.013 171.953 337.108 172.065 337.175 172.194C337.242 172.322 337.279 172.464 337.284 172.609L337.278 172.977C337.278 173.118 337.312 173.257 337.375 173.384L338.97 176.656C339.167 177.056 339.445 177.409 339.788 177.693L340.302 178.113C340.385 178.182 340.453 178.267 340.501 178.363C340.553 178.458 340.584 178.562 340.594 178.669C340.604 178.776 340.593 178.884 340.56 178.987C340.527 179.089 340.474 179.184 340.404 179.266C340.334 179.348 340.248 179.415 340.151 179.462Z" fill="white"/>
<path d="M341.585 179.205L340.844 179.396C340.74 179.423 340.631 179.429 340.525 179.414C340.419 179.398 340.316 179.362 340.224 179.307C340.132 179.251 340.052 179.178 339.989 179.092C339.926 179.005 339.88 178.906 339.856 178.802C339.835 178.696 339.837 178.587 339.861 178.482L339.975 177.828C340.052 177.39 340.033 176.94 339.918 176.509L338.992 172.989C338.958 172.853 338.893 172.726 338.802 172.618L338.57 172.342C338.476 172.227 338.409 172.093 338.374 171.949C338.339 171.805 338.337 171.655 338.369 171.51L338.484 171.004C338.51 170.888 338.568 170.781 338.651 170.695C338.734 170.609 338.838 170.548 338.954 170.518C339.07 170.489 339.191 170.493 339.305 170.528C339.419 170.562 339.521 170.628 339.601 170.716L339.946 171.09C340.044 171.201 340.116 171.333 340.156 171.476C340.196 171.618 340.203 171.768 340.176 171.914L340.108 172.282C340.08 172.421 340.084 172.564 340.119 172.701L341.02 176.228C341.131 176.659 341.332 177.061 341.61 177.409L342.027 177.923C342.095 178.006 342.145 178.102 342.174 178.206C342.203 178.31 342.211 178.419 342.197 178.526C342.183 178.633 342.147 178.736 342.092 178.83C342.038 178.923 341.964 179.004 341.877 179.069C341.79 179.133 341.691 179.18 341.585 179.205Z" fill="white"/>
<path d="M342.094 175.219L341.587 173.19C341.553 173.054 341.49 172.927 341.401 172.819L341.18 172.546C341.089 172.435 341.025 172.304 340.993 172.163C340.96 172.023 340.961 171.877 340.994 171.737L341.112 171.242C341.139 171.13 341.196 171.027 341.278 170.945C341.359 170.863 341.462 170.805 341.574 170.778C341.687 170.749 341.806 170.752 341.917 170.787C342.028 170.822 342.127 170.887 342.203 170.976L342.532 171.349C342.627 171.457 342.696 171.585 342.734 171.723C342.771 171.862 342.776 172.007 342.749 172.148L342.677 172.493C342.647 172.627 342.645 172.766 342.67 172.901L343.145 174.853" fill="white"/>
<path d="M342.782 175.13L342.757 176.665C342.751 177.098 342.836 177.527 343.007 177.925L343.267 178.514C343.308 178.61 343.329 178.713 343.329 178.817C343.33 178.922 343.311 179.026 343.272 179.122C343.233 179.219 343.174 179.307 343.1 179.381C343.025 179.455 342.937 179.513 342.839 179.552C342.742 179.591 342.638 179.61 342.533 179.607L341.795 179.596C341.69 179.594 341.587 179.571 341.491 179.528C341.395 179.486 341.309 179.425 341.237 179.35C341.165 179.274 341.109 179.184 341.072 179.087C341.034 178.989 341.017 178.885 341.021 178.781C341.026 178.677 341.051 178.574 341.096 178.48L341.371 177.899C341.555 177.506 341.653 177.078 341.657 176.644L341.68 175.194" fill="white"/>
<path d="M344.264 179.584L343.578 179.529C343.384 179.511 343.205 179.417 343.08 179.269C342.955 179.12 342.894 178.928 342.911 178.734C342.921 178.638 342.95 178.545 342.996 178.46L343.285 177.938C343.478 177.586 343.594 177.198 343.625 176.798L343.869 173.529C343.877 173.403 343.859 173.278 343.816 173.159L343.699 172.856C343.651 172.731 343.634 172.597 343.647 172.465C343.66 172.332 343.703 172.204 343.774 172.091L344.02 171.69C344.076 171.599 344.156 171.526 344.252 171.477C344.347 171.429 344.453 171.407 344.56 171.415C344.667 171.424 344.77 171.462 344.857 171.525C344.943 171.588 345.011 171.674 345.053 171.773L345.234 172.206C345.286 172.329 345.309 172.462 345.3 172.594C345.292 172.727 345.252 172.856 345.185 172.971L345.026 173.252C344.962 173.365 344.924 173.49 344.913 173.619L344.647 176.884C344.614 177.283 344.667 177.684 344.801 178.061L345.007 178.624C345.039 178.715 345.052 178.812 345.047 178.908C345.031 179.101 344.94 179.28 344.794 179.406C344.648 179.532 344.457 179.597 344.264 179.584Z" fill="white"/>
<path d="M337.777 180.892C337.643 181.071 337.444 181.191 337.223 181.226C337.001 181.261 336.776 181.208 336.592 181.08L332.9 178.444C332.811 178.386 332.736 178.31 332.679 178.22C332.622 178.13 332.585 178.029 332.571 177.924C332.557 177.819 332.566 177.712 332.597 177.611C332.628 177.509 332.681 177.416 332.752 177.337L333.102 176.912C333.165 176.831 333.243 176.765 333.333 176.716C333.423 176.668 333.522 176.638 333.624 176.63C333.726 176.621 333.829 176.634 333.925 176.667C334.022 176.7 334.11 176.753 334.186 176.822C334.304 176.926 334.386 177.066 334.419 177.22C334.837 179.067 336.626 179.21 337.309 179.202C337.491 179.199 337.669 179.255 337.816 179.361C337.908 179.427 337.986 179.511 338.045 179.607C338.105 179.703 338.144 179.81 338.161 179.922C338.179 180.034 338.174 180.147 338.147 180.257C338.12 180.367 338.071 180.47 338.004 180.561L337.777 180.892Z" fill="white"/>
<path d="M333.166 176.87L332.672 177.26C332.611 177.308 332.539 177.342 332.463 177.359C332.387 177.377 332.308 177.378 332.231 177.362C332.155 177.347 332.083 177.315 332.02 177.269C331.957 177.223 331.904 177.164 331.866 177.096C331.347 176.179 330.77 175.295 330.139 174.451C330.096 174.393 330.066 174.327 330.048 174.257C330.031 174.187 330.028 174.114 330.039 174.042C330.05 173.971 330.075 173.903 330.113 173.841C330.151 173.779 330.2 173.726 330.258 173.683L330.543 173.482C330.654 173.402 330.792 173.367 330.928 173.383C331.065 173.4 331.19 173.467 331.28 173.571C331.346 173.65 331.388 173.746 331.401 173.849C331.447 174.291 331.62 174.711 331.899 175.058C332.177 175.405 332.55 175.665 332.973 175.807C333.109 175.854 333.225 175.947 333.301 176.07C333.381 176.196 333.411 176.348 333.386 176.495C333.361 176.643 333.283 176.776 333.166 176.87Z" fill="white"/>
<path d="M344.424 183.934L344.422 184.081L344.466 185.923L340.836 186.83C340.672 186.117 340.296 185.469 339.758 184.972C339.631 184.847 339.537 184.693 339.484 184.523C339.431 184.353 339.422 184.173 339.456 183.999L339.456 183.977C339.502 183.742 339.626 183.53 339.808 183.374C339.99 183.219 340.22 183.129 340.459 183.12C340.537 183.112 340.615 183.113 340.692 183.123C341.535 183.264 342.397 183.232 343.227 183.031L343.286 183.032C343.497 182.997 343.715 183.032 343.904 183.132C344.093 183.232 344.244 183.392 344.334 183.586C344.387 183.695 344.417 183.813 344.424 183.934Z" fill="white"/>
<path d="M346.432 183.498L346.739 185.344L345.481 185.656C345.333 185.167 345.049 184.73 344.663 184.395C344.561 184.312 344.478 184.207 344.421 184.089C344.399 184.032 344.381 183.974 344.368 183.915L344.341 183.778C344.331 183.707 344.332 183.635 344.344 183.565C344.359 183.369 344.447 183.186 344.591 183.052C344.735 182.918 344.923 182.843 345.12 182.841L345.666 182.849C345.85 182.851 346.027 182.918 346.167 183.036C346.306 183.155 346.4 183.318 346.432 183.498Z" fill="white"/>
<path d="M344.35 179.352C340.084 178.18 337.709 180.966 337.709 180.966L337.952 181.515C338.012 181.652 338.118 181.765 338.251 181.834C338.384 181.903 338.537 181.925 338.685 181.895L339.055 181.838C339.092 181.832 339.13 181.836 339.165 181.849C339.2 181.863 339.231 181.887 339.253 181.917C339.276 181.947 339.29 181.983 339.293 182.02C339.296 182.058 339.289 182.095 339.272 182.129C339.253 182.167 339.246 182.209 339.253 182.251C339.259 182.293 339.279 182.331 339.309 182.362C339.797 182.806 340.397 183.11 341.046 183.242C341.694 183.373 342.366 183.327 342.99 183.108C344.323 182.684 345.186 181.84 345.2 180.459C345.202 180.207 345.119 179.961 344.965 179.761C344.811 179.56 344.595 179.416 344.35 179.352Z" fill="white"/>
<path d="M333.652 188.448C333.673 188.322 333.707 188.291 333.665 188.17C333.623 188.048 333.551 187.939 333.457 187.852C333.41 187.814 333.354 187.788 333.294 187.776C333.234 187.764 333.172 187.768 333.114 187.786C333.056 187.803 333.004 187.835 332.961 187.878C332.918 187.921 332.887 187.974 332.87 188.032C332.735 188.49 332.56 188.935 332.345 189.361L331.352 190.834L330.894 193.525L322.156 204.589L325.986 210.792C326.513 210.288 326.941 209.689 327.249 209.029L332.873 197.023C333.519 195.731 334.675 195.182 335.539 193.967L337.102 191.843C337.445 191.353 337.101 190.672 336.584 190.904C337.323 190.271 336.954 189.431 336.315 189.564C336.428 189.44 336.489 189.279 336.487 189.112C336.485 188.945 336.42 188.785 336.304 188.664C336.188 188.544 336.03 188.471 335.863 188.462C335.696 188.453 335.531 188.507 335.403 188.614C335.463 188.522 335.501 188.417 335.512 188.307C335.522 188.197 335.553 188.156 335.512 188.054L333.652 188.448Z" fill="#EFB7A8"/>
<path d="M288.058 285.673L288.306 284.822L294.584 286.56C294.514 286.848 294.467 287.141 294.443 287.436L293.985 288.699L288.878 287.098L288.058 285.673Z" fill="#394450"/>
<path d="M300.842 295.002L291.052 292.289L290.11 290.79L289.571 291.876L286 290.889L288.057 285.673C291.565 286.582 290.886 288.923 294.423 287.436C295.472 293.503 300.513 290.404 300.842 295.002Z" fill="#BF7461"/>
<path d="M294.039 264.461L288.175 285.251C288.175 285.251 297.444 288.267 297.444 287.983C301.875 272.053 305.524 264.461 305.524 264.461H294.039Z" fill="#74899F"/>
<path d="M298.919 289.428V288.545H305.418C305.429 288.842 305.462 289.137 305.518 289.428L305.418 290.765L300.067 290.588L298.919 289.428Z" fill="#394450"/>
<path d="M327.143 198.095L330.057 194.564L333.506 199.597L331.043 201.802L327.143 198.095Z" fill="#74899F"/>
<path d="M331.053 201.805C329.31 199.048 327.153 198.098 327.153 198.098L321.341 205.759L308.966 198.37L304.589 205.759L324.716 212.489L331.053 201.805Z" fill="#E7EDF4"/>
<path d="M333.339 199.784L334.196 198.926C334.661 198.321 335.021 197.643 335.263 196.92C335.403 196.519 335.532 196.069 335.898 195.848C336.233 195.717 336.59 195.649 336.951 195.65C337.312 195.593 337.651 195.437 337.929 195.201L340.348 192.822C340.433 192.742 340.546 192.696 340.663 192.695C340.781 192.694 340.894 192.737 340.981 192.815C341.068 192.894 341.122 193.003 341.132 193.119C341.142 193.236 341.107 193.352 341.035 193.444L338.409 196.662C338.532 196.658 338.653 196.691 338.757 196.756C338.86 196.822 338.941 196.918 338.989 197.03C339.059 197.248 339.056 197.483 339.133 197.697C339.24 197.984 339.502 198.212 339.539 198.514C339.576 198.816 339.458 199.055 339.51 199.324C339.543 199.504 339.658 199.663 339.706 199.843C339.835 200.307 339.513 200.771 339.185 201.128L337.874 202.277C337.305 202.785 336.396 202.689 335.699 203.51" fill="#EFB7A8"/>
<path d="M331.049 201.802L333.512 199.597L336.817 204.062L332.825 208.322L331.049 201.802Z" fill="#95ABC1"/>
<path d="M303.848 192.347C301.903 192.45 299.991 191.82 298.491 190.583C296.99 189.345 296.012 187.59 295.75 185.666C295.488 183.742 295.962 181.791 297.077 180.199C298.192 178.607 299.867 177.492 301.769 177.075C302.015 177.031 302.261 176.998 302.507 176.976C304.4 176.817 306.286 177.355 307.806 178.49C309.327 179.625 310.377 181.276 310.757 183.132C310.794 183.312 310.824 183.5 310.846 183.676C310.846 183.776 310.872 183.879 310.879 183.982C311.056 186.02 310.415 188.044 309.097 189.612C307.779 191.18 305.892 192.163 303.848 192.347Z" fill="#EFB7A8"/>
<path d="M299.304 194.891C300.043 193.86 299.981 192.13 299.858 191.394H306.321C306.077 193.707 306.241 196.046 306.807 198.303L306.875 198.573C304.044 197.775 299.304 196.18 299.304 194.891Z" fill="#EFB7A8" stroke="#EFB7A8" stroke-width="0.370041"/>
<path d="M309.742 182.624L309.986 186.692" stroke="#BE3626" stroke-width="0.277531" stroke-miterlimit="10"/>
<path d="M309.854 184.661L303.927 185.091" stroke="#BE3626" stroke-width="0.277531" stroke-miterlimit="10"/>
<path d="M310.747 175.533C310.053 178.018 308.901 178.42 307.719 178.423C306.98 178.423 306.197 178.265 305.547 178.386C303.886 178.692 303.287 179.428 303.287 179.428C303.797 179.695 304.223 180.096 304.519 180.589C304.815 181.081 304.969 181.645 304.964 182.219L305.127 185.72V185.779L304.912 185.82L301.508 186.456C301.538 186.76 301.55 187.065 301.544 187.37C301.515 189.579 300.536 190.867 299.698 191.544C299.358 191.837 298.957 192.05 298.524 192.167C298.197 191.182 297.717 190.256 297.102 189.42C296.28 188.376 295.743 187.139 295.542 185.827C295.34 184.516 295.481 183.175 295.952 181.933C296.422 180.692 297.206 179.593 298.227 178.742C299.248 177.891 300.472 177.317 301.781 177.076L310.747 175.533Z" fill="#BF7461"/>
<path d="M303.287 187.779C304.309 187.779 305.138 186.953 305.138 185.935C305.138 184.916 304.309 184.09 303.287 184.09C302.265 184.09 301.437 184.916 301.437 185.935C301.437 186.953 302.265 187.779 303.287 187.779Z" fill="#EFB7A8"/>
<path d="M298.832 194.564L308.94 198.371C310.314 202.708 315.628 216.609 317.803 222.651C319.978 228.692 317.434 234.642 317.434 234.642H294.744L298.204 197.244C298.571 196.395 298.783 195.487 298.832 194.564Z" fill="#95ABC1"/>
<path d="M298.21 197.244C310.375 203.981 315.637 212.283 316.808 225.747C317.978 239.21 318.754 264.462 318.754 264.462H290.687L288.87 227.547C288.232 208.403 298.21 197.244 298.21 197.244Z" fill="white"/>
<path d="M298.331 264.461L298.918 288.543H309.007C308.438 274.593 310.484 264.461 310.484 264.461H298.331Z" fill="#95ABC1"/>
<path d="M305.856 202.463L323.12 209.09L331.034 201.808C334.376 206.262 335.554 209.447 335.554 209.447L329.199 215.102C326.964 217.091 324.037 218.127 321.045 217.988L301.421 217.094L305.856 202.463Z" fill="white"/>
<path d="M313.731 295.001H303.568L302.261 293.808L302.032 295.001H298.339L298.919 289.427C302.542 289.365 302.516 291.806 305.526 289.427C308.155 294.99 312.18 290.657 313.731 295.001Z" fill="#BF7461"/>
<path d="M206.227 194.964C206.145 193.971 205.596 192.899 204.65 192.662C204.346 192.602 204.032 192.614 203.733 192.696C203.434 192.779 203.158 192.93 202.928 193.138C202.477 193.562 202.15 194.1 201.982 194.696C201.682 195.68 201.668 196.728 201.94 197.719C202.213 198.711 202.761 199.605 203.521 200.297C203.379 199.899 203.243 199.436 203.47 199.083C203.915 198.386 205.047 198.591 205.574 197.846C206.096 196.981 206.325 195.97 206.227 194.964Z" fill="#738F65"/>
<path d="M201.299 196.132C201.331 195.429 201.593 194.757 201.744 194.067C201.895 193.376 201.921 192.603 201.526 192.02C201.389 191.834 201.215 191.679 201.015 191.563C200.816 191.447 200.595 191.372 200.366 191.344C200.136 191.316 199.904 191.335 199.682 191.4C199.46 191.464 199.254 191.574 199.076 191.72C198.673 192.136 198.431 192.682 198.395 193.259C198.277 194.352 198.563 195.45 199.199 196.347C199.676 197.016 200.332 197.539 201.091 197.854C201.599 198.059 201.722 198.015 201.533 197.504C201.369 197.066 201.29 196.6 201.299 196.132Z" fill="#738F65"/>
<path d="M205.46 203.3C204.96 202.433 204.606 201.49 204.413 200.509C204.22 199.521 204.342 198.497 204.763 197.582C204.965 197.181 205.225 196.811 205.535 196.485C205.829 196.151 206.189 195.883 206.592 195.696C207.664 195.242 208.985 195.737 209.679 196.671C209.978 197.073 210.177 197.539 210.262 198.033C210.346 198.526 210.313 199.032 210.166 199.51C210.018 199.989 209.759 200.425 209.411 200.785C209.063 201.145 208.635 201.418 208.162 201.581C207.686 201.745 207.178 201.795 206.705 201.966C206.463 202.034 206.24 202.159 206.055 202.33C205.871 202.502 205.731 202.716 205.646 202.953C205.604 203.185 205.62 203.423 205.692 203.648C205.764 203.872 205.89 204.075 206.059 204.239" fill="#738F65"/>
<path d="M207.301 206.661C206.986 205.4 206.765 204.113 207.042 202.861C207.32 201.609 208.222 200.423 209.477 200.168C209.999 200.06 210.543 200.117 211.031 200.332C211.519 200.547 211.929 200.908 212.202 201.367C212.475 201.825 212.599 202.357 212.556 202.889C212.513 203.42 212.305 203.926 211.962 204.334C211.37 204.962 210.581 205.37 209.726 205.488C208.988 205.624 208.13 205.687 207.689 206.295C207.55 206.495 207.472 206.73 207.463 206.973C207.455 207.216 207.517 207.456 207.642 207.664" fill="#738F65"/>
<path d="M204.334 208.642C203.934 208.891 203.614 209.25 203.413 209.677C203.183 210.158 203.104 210.697 203.186 211.224C203.267 211.751 203.507 212.241 203.872 212.63C204.237 213.019 204.711 213.288 205.232 213.402C205.753 213.517 206.296 213.471 206.791 213.272C207.557 212.978 208.834 212.048 208.973 211.175C209.124 210.203 207.967 209.235 207.226 208.803C206.374 208.302 205.233 208.109 204.334 208.642Z" fill="#738F65"/>
<path d="M203.364 201.248C202.728 200.874 201.999 200.686 201.261 200.706C200.893 200.719 200.533 200.813 200.206 200.982C199.879 201.15 199.593 201.389 199.369 201.68C199.136 202.03 199.002 202.437 198.983 202.857C198.964 203.277 199.059 203.694 199.258 204.064C199.465 204.43 199.752 204.744 200.097 204.983C200.442 205.223 200.837 205.382 201.251 205.449C202.087 205.574 202.941 205.4 203.661 204.957C204.055 204.72 204.411 204.417 204.821 204.212C205.111 204.071 205.789 204.102 205.833 203.825C205.878 203.547 205.316 202.989 205.174 202.812C204.68 202.176 204.065 201.645 203.364 201.248Z" fill="#738F65"/>
<path d="M211.09 235.024C213.929 208.244 200.684 197.2 200.684 197.2" stroke="#6F6659" stroke-width="0.316424" stroke-miterlimit="10"/>
<path d="M206.393 206.27C205.734 205.497 204.971 204.76 204.012 204.422C203.054 204.085 201.859 204.236 201.215 205.021C200.966 205.346 200.813 205.734 200.772 206.141C200.731 206.548 200.803 206.958 200.982 207.327C201.167 207.691 201.429 208.011 201.75 208.264C202.071 208.518 202.442 208.699 202.839 208.796C203.639 208.984 204.477 208.92 205.239 208.613C205.663 208.414 206.103 208.251 206.554 208.124C206.925 208.07 207.303 208.081 207.671 208.159C207.74 207.623 206.74 206.674 206.393 206.27Z" fill="#738F65"/>
<path d="M207.715 209.785C207.656 210.37 207.774 210.96 208.055 211.478C208.3 211.869 208.643 212.19 209.05 212.407C209.458 212.624 209.915 212.73 210.376 212.714C210.837 212.69 211.287 212.57 211.699 212.362C212.11 212.154 212.474 211.863 212.767 211.506C213.332 210.847 213.631 210 213.606 209.132C213.575 208.485 213.337 207.866 212.927 207.366C212.517 206.866 211.956 206.51 211.329 206.353C210.247 206.079 208.976 207.123 208.399 207.93C208.009 208.476 207.773 209.116 207.715 209.785Z" fill="#738F65"/>
<path d="M199.687 196.209C199.35 196.19 199.011 196.224 198.684 196.31C198.187 196.485 197.758 196.811 197.456 197.243C197.154 197.674 196.995 198.189 197 198.716C197.024 199.242 197.168 199.756 197.423 200.217C197.678 200.678 198.036 201.074 198.47 201.374C198.895 201.694 199.387 201.912 199.908 202.013C200.43 202.114 200.968 202.095 201.481 201.958C201.993 201.808 202.448 201.506 202.786 201.093C203.123 200.68 203.328 200.175 203.374 199.643C203.446 197.584 201.57 196.269 199.687 196.209Z" fill="#738F65"/>
<path d="M219.134 190.623C219.15 189.279 219.156 187.907 218.749 186.627C218.627 186.201 218.42 185.804 218.141 185.46C217.999 185.29 217.824 185.149 217.627 185.048C217.43 184.947 217.214 184.886 216.993 184.871C216.4 184.855 215.873 185.239 215.444 185.649C214.934 186.09 214.559 186.668 214.366 187.315C214.311 187.504 214.297 187.702 214.324 187.897C214.351 188.092 214.419 188.28 214.524 188.447C214.673 188.62 214.859 188.758 215.067 188.853C215.276 188.947 215.503 188.994 215.731 188.992C216.189 189.021 216.649 188.954 217.103 189.018C217.615 189.097 218.091 189.331 218.466 189.689C218.841 190.046 219.099 190.509 219.203 191.017" fill="#738F65"/>
<path d="M219.578 194.536C219.996 193.722 220.604 193.02 221.351 192.492C222.12 192.003 223.158 191.861 223.94 192.319C224.267 192.523 224.531 192.814 224.704 193.159C224.877 193.504 224.952 193.889 224.921 194.274C224.88 194.657 224.748 195.025 224.536 195.347C224.323 195.668 224.037 195.934 223.7 196.122C223.36 196.304 222.987 196.414 222.603 196.445C222.218 196.476 221.832 196.427 221.467 196.302C220.997 196.141 220.565 195.866 220.073 195.794C219.879 195.766 219.68 195.785 219.494 195.849C219.309 195.913 219.141 196.021 219.004 196.163C218.749 195.822 219.389 194.86 219.578 194.536Z" fill="#738F65"/>
<path d="M219.242 202.066C219.667 201.993 220.103 202.015 220.519 202.132C221.072 202.361 221.521 202.785 221.78 203.324C222.211 204.123 222.394 205.032 222.307 205.935C222.287 206.342 222.183 206.739 222.002 207.104C221.821 207.468 221.566 207.791 221.254 208.051C220.601 208.534 219.573 208.543 219.046 207.932C218.73 207.51 218.593 206.981 218.668 206.459C218.715 205.939 218.873 205.437 218.958 204.926C219.073 204.414 219.021 203.878 218.81 203.397C218.655 203.107 218.021 202.842 218.097 202.517C218.173 202.192 218.955 202.097 219.242 202.066Z" fill="#738F65"/>
<path d="M218.667 191.526C218.514 190.847 218.188 190.218 217.721 189.7C217.373 189.35 216.93 189.109 216.447 189.004C215.964 188.9 215.462 188.938 215 189.113C214.538 189.288 214.136 189.592 213.843 189.991C213.551 190.389 213.38 190.863 213.35 191.356C213.316 191.838 213.44 192.317 213.704 192.722C214.007 193.146 214.438 193.462 214.934 193.624C215.41 193.791 215.918 193.847 216.419 193.788C216.873 193.731 217.311 193.573 217.765 193.535C218.129 193.508 218.494 193.546 218.844 193.649C218.903 192.936 218.843 192.219 218.667 191.526Z" fill="#738F65"/>
<path d="M218.273 196.331C217.958 195.385 217.276 194.468 216.299 194.272C215.864 194.203 215.418 194.266 215.02 194.454C214.621 194.642 214.289 194.945 214.066 195.325C213.855 195.711 213.742 196.143 213.737 196.583C213.732 197.023 213.835 197.458 214.038 197.848C214.462 198.629 215.168 199.219 216.012 199.497C216.58 199.693 217.157 199.813 217.721 200.037C218.216 200.223 218.374 200.258 218.535 199.671C218.8 198.693 218.585 197.274 218.273 196.331Z" fill="#738F65"/>
<path d="M213.61 233.514C210.406 211.231 220.182 208.286 218.817 189.787" stroke="#6F6659" stroke-width="0.316424" stroke-miterlimit="10"/>
<path d="M217.71 204.416C218.389 203.839 218.825 203.027 218.93 202.142C218.99 201.768 218.962 201.386 218.85 201.024C218.737 200.663 218.542 200.332 218.281 200.058C217.984 199.806 217.626 199.635 217.243 199.562C216.86 199.49 216.464 199.518 216.095 199.645C215.357 199.911 214.724 200.407 214.288 201.061C213.994 201.438 213.78 201.872 213.661 202.335C213.543 202.799 213.521 203.282 213.598 203.754C213.765 204.508 214.487 205.413 215.326 205.419C216.089 205.422 217.149 204.908 217.71 204.416Z" fill="#738F65"/>
<path d="M221.146 197.023C220.255 197.122 219.427 197.532 218.809 198.181C218.532 198.444 218.322 198.768 218.196 199.128C218.069 199.487 218.03 199.872 218.08 200.25C218.295 201.278 219.468 201.905 220.509 201.773C221.937 201.59 223.347 200.196 223.694 198.824C224.069 197.307 222.312 196.888 221.146 197.023Z" fill="#738F65"/>
<path d="M220.134 187.465C219.681 187.756 219.292 188.139 218.995 188.59C218.697 189.04 218.497 189.547 218.406 190.079C218.312 190.583 218.385 191.105 218.614 191.564C218.812 191.883 219.092 192.142 219.425 192.314C219.759 192.486 220.132 192.563 220.507 192.539C221.255 192.482 221.958 192.156 222.484 191.621C223.004 191.107 223.383 190.467 223.585 189.764C223.786 189.061 223.804 188.318 223.635 187.607C223.231 186.115 221.049 186.881 220.134 187.465Z" fill="#738F65"/>
<path d="M222.038 221.794C222.038 239.296 216.822 247.969 216.822 257.3H207.781C207.781 247.975 202.565 239.296 202.565 221.794H222.038Z" fill="#BE3626"/>
</svg>
